<svg width="18" height="18" viewBox="0 0 18 18" fill="none" xmlns="http://www.w3.org/2000/svg">
<path d="M9 10.875C10.0355 10.875 10.875 10.0355 10.875 9C10.875 7.96447 10.0355 7.125 9 7.125C7.96447 7.125 7.125 7.96447 7.125 9C7.125 10.0355 7.96447 10.875 9 10.875Z" fill="#050505"/>
<path d="M14.625 10.875C15.6605 10.875 16.5 10.0355 16.5 9C16.5 7.96447 15.6605 7.125 14.625 7.125C13.5895 7.125 12.75 7.96447 12.75 9C12.75 10.0355 13.5895 10.875 14.625 10.875Z" fill="#050505"/>
<path d="M3.375 10.875C4.41053 10.875 5.25 10.0355 5.25 9C5.25 7.96447 4.41053 7.125 3.375 7.125C2.33947 7.125 1.5 7.96447 1.5 9C1.5 10.0355 2.33947 10.875 3.375 10.875Z" fill="#050505"/>
</svg>
