<svg width="17" height="17" viewBox="0 0 17 17" fill="none" xmlns="http://www.w3.org/2000/svg">
<path d="M3.45312 7.4375H0.796875C0.356768 7.4375 0 7.79427 0 8.23438V16.2031C0 16.6432 0.356768 17 0.796875 17H3.45312C3.89323 17 4.25 16.6432 4.25 16.2031V8.23438C4.25 7.79427 3.89323 7.4375 3.45312 7.4375ZM12.75 2.70446C12.75 4.1128 11.8877 4.90277 11.6451 5.84375H15.0226C16.1315 5.84375 16.9948 6.765 17 7.77279C17.0028 8.36838 16.7494 9.00957 16.3545 9.40628L16.3509 9.40993C16.6775 10.1848 16.6244 11.2705 16.0418 12.0486C16.3301 12.9083 16.0395 13.9645 15.4979 14.5307C15.6406 15.115 15.5724 15.6123 15.2938 16.0126C14.6161 16.9863 12.9365 17 11.5161 17L11.4217 17C9.81839 16.9994 8.50624 16.4157 7.45191 15.9466C6.92209 15.7109 6.22934 15.4191 5.70373 15.4094C5.48658 15.4055 5.3125 15.2282 5.3125 15.0111V7.91323C5.3125 7.80698 5.35507 7.70502 5.43064 7.63031C6.74594 6.33061 7.31153 4.95457 8.3896 3.87467C8.88114 3.3822 9.0599 2.63832 9.23272 1.91894C9.38038 1.30465 9.68923 0 10.3594 0C11.1562 0 12.75 0.265625 12.75 2.70446Z" fill="#1877F2"/>
</svg>
