<svg width="13" height="14" viewBox="0 0 13 14" fill="none" xmlns="http://www.w3.org/2000/svg">
<path d="M6.5 0.5C2.91006 0.5 0 3.41006 0 7C0 10.5899 2.91006 13.5 6.5 13.5C10.0899 13.5 13 10.5899 13 7C13 3.41006 10.0899 0.5 6.5 0.5ZM10.6935 6.14819V6.32982C10.6935 6.48367 10.6065 6.62441 10.4689 6.69308L10.0656 6.8949C10.0015 6.92696 9.93011 6.94149 9.85862 6.93703C9.78713 6.93256 9.7181 6.90926 9.65853 6.86948L9.18125 6.55129C9.12976 6.517 9.07113 6.4949 9.00982 6.48668C8.9485 6.47846 8.88612 6.48433 8.82742 6.50385L8.75796 6.52692C8.50373 6.61157 8.39994 6.91456 8.54855 7.1376L8.89556 7.65812C8.97079 7.77109 9.09764 7.83897 9.23341 7.83897H9.44859C9.67294 7.83897 9.85484 8.02087 9.85484 8.24522V8.54244C9.85484 8.63024 9.82627 8.71595 9.77359 8.78619L9.28242 9.44091C9.2452 9.49071 9.21978 9.54837 9.20825 9.60944L9.09554 10.2078C9.07929 10.294 9.03552 10.3727 8.97079 10.4322C8.7224 10.6596 8.5024 10.9162 8.31554 11.1964L7.97403 11.7088C7.90761 11.8085 7.81762 11.8902 7.71205 11.9467C7.60648 12.0032 7.48859 12.0328 7.36885 12.0328C7.09339 12.0328 6.84151 11.8771 6.71833 11.6307C6.57473 11.3435 6.49998 11.0269 6.5 10.7058V9.92238C6.5 9.69802 6.3181 9.51613 6.09375 9.51613H5.41544C5.03567 9.51613 4.67161 9.36516 4.40296 9.09677C4.13452 8.8282 3.98368 8.46403 3.98361 8.08429V7.71579C3.98361 7.26524 4.19591 6.84091 4.55629 6.57042L5.27915 6.02814C5.52703 5.84227 5.82848 5.74175 6.13831 5.74167H6.16163C6.38389 5.74167 6.60327 5.79331 6.80194 5.8929L7.18774 6.08581C7.28419 6.13403 7.39558 6.1419 7.4978 6.10782L8.73778 5.6945C8.90369 5.63919 9.0156 5.48403 9.0156 5.30921C9.0156 5.08486 8.83371 4.90296 8.60935 4.90296H8.3449C8.23718 4.90296 8.13391 4.86024 8.05764 4.78397L7.87627 4.6026C7.83855 4.56487 7.79377 4.53494 7.74448 4.51452C7.69519 4.4941 7.64236 4.4836 7.58901 4.48361H5.22883C5.00448 4.48361 4.82258 4.30171 4.82258 4.07736V3.96204C4.82258 3.77569 4.94944 3.61319 5.13028 3.56784L5.50901 3.47323C5.60704 3.44859 5.69248 3.38857 5.74857 3.30444L5.96034 2.98704C6.03556 2.87407 6.16242 2.80619 6.29819 2.80619H6.93272C7.15708 2.80619 7.33897 2.62429 7.33897 2.39994V1.83119C9.4153 2.16772 11.083 3.72431 11.5828 5.74194H11.0998C10.8754 5.74194 10.6935 5.92383 10.6935 6.14819Z" fill="#65676B"/>
</svg>
