<svg width="16" height="16" viewBox="0 0 16 16" fill="none" xmlns="http://www.w3.org/2000/svg">
<g clip-path="url(#clip0_2_53)">
<path d="M10.743 2.25697C11.8683 3.38215 12.5005 4.90828 12.5006 6.49962C12.5007 8.09096 11.8687 9.61716 10.7435 10.7425C9.6183 11.8678 8.09218 12.5 6.50084 12.5001C4.9095 12.5002 3.3833 11.8682 2.25798 10.743C1.13267 9.61779 0.500422 8.09166 0.500328 6.50032C0.500234 4.90898 1.1323 3.38278 2.25748 2.25747C3.38266 1.13216 4.90879 0.499911 6.50013 0.499817C8.09147 0.499723 9.61767 1.13179 10.743 2.25697ZM9.68298 3.31697C8.83906 2.47292 7.69441 1.99868 6.50084 1.99859C5.30726 1.9985 4.16253 2.47255 3.31848 3.31647C2.47443 4.16039 2.0002 5.30504 2.0001 6.49862C2.00001 7.69219 2.47406 8.83692 3.31798 9.68097C4.16521 10.5082 5.30434 10.9681 6.48842 10.9611C7.67249 10.9541 8.80607 10.4806 9.64342 9.6434C10.4808 8.80619 10.9544 7.67267 10.9616 6.4886C10.9688 5.30453 10.5091 4.16533 9.68198 3.31797L9.68298 3.31697Z" fill="#050505"/>
<path d="M10.39 8.75C10.3121 8.88838 10.2456 9.03286 10.191 9.182C10.036 9.599 9.96099 10.031 10.019 10.466C10.074 10.881 10.251 11.26 10.559 11.569C10.6949 11.7054 10.878 11.7843 11.0705 11.7894C11.2629 11.7944 11.45 11.7253 11.5929 11.5963C11.7358 11.4673 11.8236 11.2882 11.8381 11.0963C11.8527 10.9043 11.7928 10.7141 11.671 10.565L11.62 10.508C11.5551 10.4438 11.5147 10.3589 11.506 10.268C11.485 10.113 11.52 9.912 11.596 9.705C11.627 9.624 11.656 9.56 11.676 9.523L11.688 9.501C11.7374 9.4157 11.7695 9.32152 11.7824 9.22382C11.7954 9.12612 11.789 9.02683 11.7636 8.9316C11.7382 8.83638 11.6943 8.74708 11.6344 8.66882C11.5745 8.59057 11.4998 8.52487 11.4145 8.4755C11.3292 8.42612 11.235 8.39402 11.1373 8.38105C11.0396 8.36807 10.9403 8.37446 10.8451 8.39986C10.7499 8.42525 10.6606 8.46916 10.5823 8.52906C10.5041 8.58897 10.4384 8.6637 10.389 8.749L10.39 8.75Z" fill="#050505"/>
<path d="M9.557 11.659C9.595 11.641 9.647 11.619 9.707 11.595C9.914 11.518 10.115 11.483 10.269 11.503C10.349 11.513 10.412 11.537 10.467 11.58L10.508 11.616C10.6502 11.7485 10.8382 11.8206 11.0325 11.8172C11.2268 11.8137 11.4122 11.735 11.5496 11.5976C11.687 11.4602 11.7657 11.2748 11.7692 11.0805C11.7726 10.8862 11.7005 10.6982 11.568 10.556C11.2711 10.2577 10.8827 10.0675 10.465 10.016C10.03 9.95799 9.598 10.034 9.181 10.191C8.992 10.261 8.845 10.334 8.748 10.391C8.58743 10.4851 8.46759 10.6355 8.41175 10.813C8.35591 10.9906 8.36808 11.1825 8.44588 11.3516C8.52367 11.5207 8.66155 11.6548 8.83271 11.7278C9.00387 11.8009 9.19609 11.8077 9.372 11.747L9.438 11.72L9.558 11.659H9.557Z" fill="#050505"/>
<path d="M13.463 15.142L13.423 15.098L9.84902 10.906C9.25002 10.203 10.204 9.24997 10.907 9.84897L15.098 13.423L15.142 13.463C15.2 13.522 15.264 13.6 15.324 13.703C15.573 14.128 15.573 14.663 15.17 15.113L15.113 15.17C14.663 15.573 14.127 15.573 13.702 15.324C13.6146 15.2738 13.5349 15.2126 13.463 15.142Z" fill="#050505"/>
</g>
<defs>
<clipPath id="clip0_2_53">
<rect width="16" height="16" fill="white"/>
</clipPath>
</defs>
</svg>
