<svg width="17" height="17" viewBox="0 0 17 17" fill="none" xmlns="http://www.w3.org/2000/svg">
<path d="M8.5 1.23981C12.6043 1.23981 15.7857 4.24638 15.7857 8.30695C15.7857 12.3675 12.6043 15.3741 8.5 15.3741C7.78756 15.3757 7.07814 15.2816 6.39079 15.0942C6.26166 15.0585 6.12415 15.0686 6.00161 15.1227L4.55357 15.7608C4.46619 15.7993 4.37069 15.8158 4.27546 15.8088C4.18023 15.8018 4.08817 15.7715 4.00737 15.7206C3.92657 15.6697 3.8595 15.5998 3.81203 15.5169C3.76457 15.4341 3.73817 15.3408 3.73514 15.2454L3.69568 13.9497C3.693 13.8709 3.67429 13.7934 3.64068 13.722C3.60706 13.6506 3.55926 13.5868 3.50018 13.5344C2.76918 12.8759 2.18714 12.0689 1.79294 11.1675C1.39875 10.266 1.20147 9.29076 1.21429 8.30695C1.21429 4.24638 4.39572 1.23981 8.5 1.23981ZM4.12493 10.3737C4.08163 10.4423 4.0638 10.5239 4.07455 10.6043C4.0853 10.6847 4.12394 10.7587 4.18374 10.8135C4.24353 10.8683 4.32067 10.9004 4.40169 10.9041C4.48272 10.9078 4.56247 10.883 4.62704 10.8339L6.92568 9.08895C7.00164 9.03181 7.09412 9.00091 7.18918 9.00091C7.28424 9.00091 7.37671 9.03181 7.45268 9.08895L9.15268 10.3639C9.27345 10.4542 9.41159 10.5186 9.55842 10.5529C9.70525 10.5872 9.85759 10.5907 10.0059 10.5633C10.1541 10.5358 10.2951 10.478 10.42 10.3935C10.5448 10.3089 10.6508 10.1994 10.7313 10.0719L12.8714 6.67677C12.9147 6.60818 12.9326 6.52657 12.9218 6.44618C12.9111 6.36578 12.8724 6.29172 12.8126 6.23692C12.7528 6.18211 12.6757 6.15005 12.5947 6.14633C12.5136 6.14261 12.4339 6.16746 12.3693 6.21656L10.0707 7.96149C9.99471 8.01862 9.90224 8.04952 9.80718 8.04952C9.71212 8.04952 9.61965 8.01862 9.54368 7.96149L7.84368 6.68649C7.72291 6.5962 7.58477 6.53188 7.43794 6.49758C7.29111 6.46327 7.13877 6.45973 6.9905 6.48715C6.84224 6.51458 6.70125 6.5724 6.57641 6.65696C6.45157 6.74153 6.34558 6.85101 6.26511 6.97852L4.12493 10.3737Z" fill="#050505"/>
</svg>
